<svg xmlns="http://www.w3.org/2000/svg" version="1.1" xmlns:xlink="http://www.w3.org/1999/xlink" xmlns:svgjs="http://svgjs.dev/svgjs" width="1000" height="1000" viewBox="0 0 1000 1000"><g transform="matrix(1,0,0,1,0,0)"><svg viewBox="0 0 280 280" data-background-color="#000000" preserveAspectRatio="xMidYMid meet" height="1000" width="1000" xmlns="http://www.w3.org/2000/svg" xmlns:xlink="http://www.w3.org/1999/xlink"><g id="tight-bounds" transform="matrix(1,0,0,1,0,0)"><svg viewBox="0 0 280 280" height="280" width="280"><g><svg viewBox="0 0 280 280" height="280" width="280"><g transform="matrix(1,0,0,1,60.80404050710668,60.80404050710668)"><svg viewBox="0 0 158.39191898578665 158.39191898578665" height="158.39191898578665" width="158.39191898578665"><g><svg viewBox="0 0 158.39191898578665 158.39191898578665" height="158.39191898578665" width="158.39191898578665"><g><svg viewBox="0 0 158.39191898578665 158.39191898578665" height="158.39191898578665" width="158.39191898578665"><g id="textblocktransform"><svg viewBox="0 0 158.39191898578665 158.39191898578665" height="158.39191898578665" width="158.39191898578665" id="textblock"><g><svg viewBox="0 0 158.39191898578665 158.39191898578665" height="158.39191898578665" width="158.39191898578665"><g transform="matrix(1,0,0,1,45.60649889051505,41.86262615955999)"><svg viewBox="0 0 67.17892120475655 74.66666666666667" height="74.66666666666667" width="67.17892120475655"><g><svg xmlns="http://www.w3.org/2000/svg" data-name="Layer 1" viewBox="7.199920263474936 2.4 85.6531245360646 95.19999999999999" x="0" y="0" height="74.66666666666667" width="67.17892120475655" class="icon-xg-0" data-fill-palette-color="accent" id="xg-0"><g data-name="Group" fill="#dedede" data-fill-palette-color="accent"><path data-name="Path" d="M55.6 2.4c-19.9 0-36.8 15.9-37.3 34.9L7.5 62.8a4 4 0 0 0 3.3 5.5l8.3 0.8 1.6 7.6A13.1 13.1 0 0 0 33.4 87.2h0.7l11.4-0.6a4 4 0 0 0-0.4-8l-11.4 0.6a5 5 0 0 1-5.2-4L26.3 64.7a4 4 0 0 0-3.5-3.2L17 60.9l9-21.3a4 4 0 0 0 0.3-1.6c0-14.8 13.7-27.7 29.3-27.7 12.4 0 24 7.8 27.8 18.6l0.2 0.4c2.4 5.2 0.9 18-0.2 27.3-0.4 3.7-0.9 7.2-1.1 10.2a77 77 0 0 0 0.2 12.5 4 4 0 0 0 8-0.8 68.9 68.9 0 0 1-0.2-11.2c0.2-2.8 0.6-6.2 1-9.8 1.3-11.3 2.9-24.1-0.4-31.4C86 12.4 71.2 2.4 55.6 2.4Z" fill="#dedede" data-fill-palette-color="accent"></path><path data-name="Compound Path" d="M52.3 78.5V93.6a4 4 0 0 0 8 0V78.5H71.9a4 4 0 0 0 4-4V61.8a10.3 10.3 0 1 0-8 0v8.7H60.3V35.4a10.3 10.3 0 1 0-8 0V57.9H43V53.3a10.3 10.3 0 1 0-8 0v8.6a4 4 0 0 0 4 4H52.3V78.5ZM71.9 50.1a2.3 2.3 0 1 1-2.3 2.3A2.3 2.3 0 0 1 71.9 50.1ZM39 41.6a2.3 2.3 0 1 1-2.3 2.3A2.3 2.3 0 0 1 39 41.6ZM56.3 23.7a2.3 2.3 0 1 1-2.3 2.3A2.3 2.3 0 0 1 56.3 23.7Z" fill="#dedede" data-fill-palette-color="accent"></path></g></svg></g></svg></g><g><path d="M21.376 43.689l0.588 0.68-2.363 5.676-0.575-0.24-0.652-2.328-10.322-4.297 10.205 10.092-0.429 1.029-14.466-0.223 10.674 4.444 1.807-1.544 0.588 0.68-1.819 4.368-0.575-0.239-0.652-2.329-10.943-4.556-1.845 1.506-0.597-0.684 1.687-4.052 13.664 0.216-9.787-9.527 1.788-4.294 0.575 0.24 0.644 2.346 11.295 4.703z" fill="#89939e" data-fill-palette-color="primary"></path><path d="M32.356 30.371l0.344 0.845-2.518 2.895-1.327-1.154-0.146 2.908c-0.095 0.272-0.274 0.56-0.538 0.864v0c-0.76 0.874-1.529 1.319-2.307 1.335-0.778 0.007-1.473-0.256-2.084-0.788v0c-0.364-0.316-0.611-0.762-0.741-1.336-0.125-0.57-0.131-1.237-0.018-2v0l3-3.448-0.978-0.851c-0.662-0.576-1.283-0.805-1.864-0.689-0.581 0.107-1.138 0.466-1.669 1.077v0c-0.549 0.632-0.84 1.736-0.873 3.315v0l-0.972-0.046 0.169-3.714c0.271-0.475 0.654-0.997 1.151-1.569v0c0.804-0.925 1.656-1.444 2.555-1.559 0.889-0.114 1.766 0.205 2.629 0.956v0l4.457 3.877zM27.297 35.116c0.541-0.621 0.835-1.537 0.884-2.746v0l-1.539-1.338-2.347 2.698c0.043 0.277 0.121 0.514 0.235 0.71 0.118 0.201 0.274 0.384 0.465 0.552v0c0.374 0.325 0.783 0.508 1.227 0.548 0.435 0.041 0.793-0.1 1.075-0.424z" fill="#89939e" data-fill-palette-color="primary"></path><path d="M41.727 21.551c-0.221-0.311-0.595-0.473-1.122-0.485-0.521-0.016-1.263 0.043-2.227 0.178v0c-0.777 0.109-1.421 0.18-1.931 0.214-0.508 0.025-0.991-0.019-1.447-0.13-0.451-0.115-0.799-0.344-1.044-0.687v0c-0.279-0.393-0.414-0.934-0.402-1.625 0.009-0.68 0.146-1.344 0.408-1.991 0.265-0.656 0.604-1.132 1.019-1.427v0c0.508-0.361 1.139-0.715 1.895-1.063 0.755-0.348 1.336-0.547 1.743-0.598v0l1.804 2.538-0.63 0.448c-0.834-0.434-1.617-0.679-2.347-0.735-0.732-0.047-1.34 0.102-1.826 0.448v0c-0.338 0.241-0.547 0.525-0.627 0.852-0.079 0.328-0.02 0.631 0.178 0.909v0c0.241 0.338 0.633 0.515 1.178 0.53 0.549 0.021 1.314-0.047 2.297-0.202v0c0.764-0.116 1.391-0.188 1.88-0.216 0.491-0.037 0.953 0 1.386 0.112 0.436 0.117 0.775 0.345 1.015 0.683v0c0.287 0.404 0.418 0.952 0.393 1.644-0.035 0.69-0.19 1.368-0.466 2.032-0.285 0.663-0.635 1.141-1.05 1.437v0c-0.54 0.384-1.226 0.777-2.058 1.179-0.832 0.402-1.46 0.639-1.885 0.711v0l-1.804-2.538 0.63-0.448c0.867 0.411 1.699 0.616 2.496 0.617 0.792 0.004 1.458-0.186 1.999-0.57v0c0.36-0.256 0.586-0.556 0.678-0.901 0.097-0.349 0.053-0.654-0.133-0.916z" fill="#89939e" data-fill-palette-color="primary"></path><path d="M57.771 14.638l-1.309 2.259c-0.247 0.213-0.576 0.401-0.986 0.564v0c-1.04 0.412-1.91 0.444-2.61 0.095-0.697-0.358-1.271-1.106-1.723-2.245v0l-2.178-5.49-2.036 0.807-0.303-0.766 1.928-5.573 0.709-0.282 1.649 4.155 3.38-1.341 0.303 0.766-3.38 1.341 2.267 5.714c0.403 1.015 1.092 1.328 2.07 0.941v0c0.261-0.104 0.494-0.261 0.699-0.472 0.198-0.208 0.421-0.527 0.669-0.957v0z" fill="#89939e" data-fill-palette-color="primary"></path><path d="M73.816 10.261l-3.077 3.369c-0.518 0.193-1.148 0.349-1.888 0.468v0c-0.879 0.142-1.706 0.042-2.48-0.3-0.769-0.35-1.415-0.883-1.939-1.599-0.518-0.723-0.853-1.558-1.006-2.503v0c-0.166-1.025-0.011-2.037 0.465-3.036 0.482-1.001 1.149-1.845 2.001-2.533 0.851-0.694 1.716-1.113 2.595-1.255v0c1.263-0.205 2.325 0.135 3.188 1.02 0.856 0.886 1.417 2.148 1.682 3.788v0l-7.377 1.195c0.263 1.118 0.719 1.99 1.37 2.617 0.659 0.633 1.454 0.874 2.387 0.723v0c0.859-0.139 1.98-1.01 3.362-2.611v0zM67.599 4.736c-1.434 0.233-2.025 1.339-1.772 3.319v0l4.66-0.755c-0.236-0.701-0.447-1.23-0.634-1.586-0.187-0.356-0.456-0.635-0.807-0.836-0.35-0.194-0.833-0.242-1.447-0.142z" fill="#89939e" data-fill-palette-color="primary"></path><path d="M89.43 2.954c0.447 0.042 0.825 0.199 1.136 0.47 0.31 0.278 0.538 0.639 0.685 1.084v0l-1.478 1.545-0.77-0.072c-0.022-0.338-0.096-0.584-0.223-0.738-0.127-0.153-0.31-0.241-0.55-0.264v0c-0.3-0.028-0.621 0.019-0.962 0.142-0.341 0.122-0.742 0.377-1.202 0.764v0l-0.567 6 2.739 1.137-0.476 0.762-6.621-0.625 0.059-0.62 1.923-1.241 0.538-5.701-1.692-1.209 0.06-0.63 3.6-1.365 0.386 2.539 2.302-1.942c0.29-0.08 0.662-0.099 1.115-0.056v0z" fill="#89939e" data-fill-palette-color="primary"></path><path d="M113.941 22.185l-0.679 0.588-5.677-2.36 0.239-0.575 2.328-0.653 4.291-10.324-10.086 10.211-1.03-0.428 0.215-14.466-4.438 10.676 1.545 1.806-0.679 0.588-4.369-1.816 0.239-0.575 2.327-0.653 4.55-10.946-1.507-1.845 0.683-0.597 4.054 1.685-0.208 13.664 9.521-9.793 4.295 1.785-0.239 0.575-2.347 0.646-4.696 11.298z" fill="#89939e" data-fill-palette-color="primary"></path><path d="M123.838 29.856l-0.825 0.378-4.376-3.551 0.393-0.483 2.289 0.033 3.722-4.586-0.605-2.108 0.392-0.484 3.5 1.171 0.593 0.481-6.052 7.457zM131.746 15.186c0.312 0.253 0.474 0.579 0.487 0.978 0.017 0.393-0.114 0.762-0.392 1.104v0c-0.198 0.244-0.457 0.414-0.776 0.51-0.319 0.095-0.638 0.116-0.957 0.064-0.32-0.052-0.586-0.165-0.799-0.339v0c-0.312-0.253-0.477-0.576-0.494-0.97-0.022-0.398 0.108-0.771 0.391-1.119v0c0.194-0.239 0.453-0.404 0.776-0.495 0.319-0.095 0.64-0.119 0.964-0.071 0.32 0.052 0.586 0.165 0.8 0.338z" fill="#89939e" data-fill-palette-color="primary"></path><path d="M136.076 44.841l-0.889 0.159-2.326-3.052 5.418-4.127c0.591-0.451 0.935-0.856 1.031-1.216 0.096-0.36-0.036-0.777-0.397-1.25v0c-0.268-0.352-0.6-0.654-0.995-0.909-0.392-0.249-0.949-0.472-1.673-0.67v0l-4.874 3.713 0.535 1.879-0.883 0.167-3.415-4.482 0.495-0.378 2.216 0.572 4.555-3.47-0.259-2.063 0.503-0.384 3.445 1.72-1.692 2.122 3.563 0.897c0.256 0.159 0.524 0.422 0.804 0.79v0c0.556 0.73 0.773 1.478 0.65 2.245-0.113 0.768-0.551 1.443-1.313 2.023v0l-5.018 3.823z" fill="#89939e" data-fill-palette-color="primary"></path><path d="M143.369 62.007l-0.908-0.087-1.396-3.574 1.356-0.531-2.078-1.204c-0.258-0.366-0.497-0.83-0.716-1.392v0c-0.324-0.83-0.4-1.659-0.228-2.489 0.181-0.826 0.566-1.569 1.155-2.231 0.598-0.658 1.344-1.161 2.236-1.51v0c0.967-0.378 1.989-0.439 3.066-0.184 1.08 0.261 2.045 0.736 2.897 1.424 0.858 0.686 1.448 1.444 1.773 2.273v0c0.268 0.686 0.317 1.39 0.145 2.111v0l3.883-1.517 0.515-2.132 0.58-0.227 2.465 2.747 0.278 0.711-15.026 5.872zM141.6 55.548c0.149 0.38 0.343 0.722 0.583 1.023 0.24 0.302 0.594 0.609 1.062 0.923v0l4.294-1.679c0.601-0.321 0.998-0.814 1.191-1.479 0.202-0.661 0.131-1.432-0.213-2.311v0c-0.553-1.416-1.84-1.729-3.861-0.939v0c-1.179 0.461-2.072 1.09-2.681 1.889-0.608 0.799-0.733 1.656-0.375 2.573z" fill="#89939e" data-fill-palette-color="primary"></path><path d="M13.657 121.446l-1-0.058-2.717-6.257 0.636-0.276 2.36 1.275 11.38-4.941-15.92 0.386-0.492-1.134 11.31-11.382-11.767 5.108-0.151 2.629-1-0.059-2.089-4.81 0.636-0.276 2.361 1.275 12.052-5.233 0.224-2.637 1.005 0.045 1.94 4.469-10.686 10.75 15.143-0.486 2.052 4.727-0.636 0.276-2.377-1.289-12.44 5.401z" fill="#89939e" data-fill-palette-color="primary"></path><path d="M26.626 136.808l-0.967 0.263-2.853-3.162 1.446-1.305-3.179-0.555c-0.287-0.138-0.581-0.374-0.881-0.706v0c-0.861-0.955-1.247-1.861-1.155-2.719 0.091-0.858 0.47-1.588 1.136-2.19v0c0.398-0.359 0.921-0.569 1.569-0.631 0.648-0.062 1.384 0.019 2.206 0.242v0l3.399 3.765 1.067-0.962c0.721-0.651 1.06-1.304 1.018-1.961-0.047-0.652-0.371-1.311-0.973-1.977v0c-0.624-0.691-1.802-1.162-3.534-1.411v0l0.176-1.065 4.068 0.685c0.489 0.362 1.014 0.853 1.575 1.474v0c0.911 1.009 1.369 2.017 1.374 3.022 0.01 1.001-0.457 1.928-1.401 2.781v0l-4.862 4.388zM22.079 130.6c0.61 0.676 1.578 1.124 2.904 1.344v0l1.686-1.521-2.659-2.946c-0.309 0.017-0.58 0.072-0.812 0.165-0.233 0.102-0.456 0.249-0.67 0.442v0c-0.408 0.368-0.664 0.789-0.769 1.262-0.105 0.483 0.001 0.901 0.32 1.254z" fill="#89939e" data-fill-palette-color="primary"></path><path d="M38.93 144.017c0.24-0.347 0.267-0.797 0.08-1.35-0.178-0.555-0.521-1.306-1.03-2.253v0c-0.406-0.778-0.721-1.424-0.944-1.936-0.225-0.522-0.362-1.041-0.413-1.557-0.05-0.515 0.056-0.963 0.319-1.343v0c0.309-0.446 0.821-0.792 1.537-1.037 0.72-0.251 1.467-0.36 2.244-0.328 0.78 0.027 1.404 0.202 1.871 0.526v0c0.567 0.393 1.173 0.918 1.817 1.576 0.644 0.658 1.072 1.187 1.285 1.586v0l-1.968 2.841-0.702-0.487c0.139-1.036 0.097-1.945-0.127-2.727-0.224-0.782-0.606-1.36-1.145-1.734v0c-0.38-0.263-0.756-0.373-1.129-0.329-0.378 0.04-0.673 0.214-0.887 0.522v0c-0.263 0.38-0.299 0.86-0.106 1.441 0.191 0.572 0.552 1.344 1.085 2.316v0c0.406 0.754 0.72 1.378 0.939 1.872 0.216 0.5 0.347 0.998 0.395 1.495 0.047 0.497-0.061 0.935-0.325 1.315v0c-0.313 0.451-0.835 0.794-1.567 1.028-0.734 0.225-1.499 0.318-2.296 0.28-0.798-0.048-1.431-0.233-1.898-0.557v0c-0.6-0.416-1.268-0.98-2.005-1.694-0.727-0.715-1.21-1.282-1.449-1.7v0l1.967-2.841 0.702 0.486c-0.097 1.057 0.003 2.002 0.298 2.834 0.296 0.832 0.743 1.456 1.344 1.871v0c0.407 0.282 0.81 0.406 1.208 0.373 0.398-0.034 0.698-0.197 0.9-0.489z" fill="#89939e" data-fill-palette-color="primary"></path><path d="M55.773 152.508l-2.764 0.843c-0.362-0.011-0.774-0.107-1.236-0.287v0c-1.155-0.449-1.882-1.081-2.184-1.895-0.301-0.814-0.205-1.855 0.288-3.122v0l2.375-6.104-2.256-0.878 0.331-0.851 5.769-3.081 0.796 0.31-1.8 4.625 3.764 1.464-0.332 0.852-3.763-1.465-2.474 6.357c-0.44 1.13-0.116 1.906 0.97 2.328v0c0.293 0.114 0.6 0.158 0.919 0.131 0.323-0.018 0.75-0.107 1.279-0.267v0z" fill="#89939e" data-fill-palette-color="primary"></path><path d="M73.532 154.572l-4.422 2.452c-0.608 0.023-1.325-0.034-2.15-0.169v0c-0.978-0.16-1.812-0.558-2.502-1.193-0.69-0.635-1.182-1.422-1.477-2.359-0.293-0.944-0.354-1.941-0.182-2.992v0c0.186-1.137 0.707-2.144 1.564-3.022 0.857-0.884 1.857-1.538 2.998-1.962 1.136-0.432 2.19-0.568 3.161-0.409v0c1.401 0.229 2.401 0.963 2.999 2.201 0.593 1.23 0.74 2.754 0.442 4.572v0l-8.188-1.341c-0.119 1.263 0.057 2.344 0.528 3.242 0.464 0.897 1.211 1.43 2.242 1.599v0c0.958 0.157 2.445-0.367 4.461-1.571v0zM68.938 146.572c-1.593-0.261-2.604 0.693-3.033 2.863v0l5.174 0.847c-0.002-0.815-0.038-1.445-0.108-1.891-0.076-0.447-0.264-0.834-0.563-1.161-0.306-0.328-0.796-0.548-1.47-0.658z" fill="#89939e" data-fill-palette-color="primary"></path><path d="M88.38 144.773c0.487-0.043 0.929 0.055 1.327 0.296 0.397 0.234 0.72 0.578 0.97 1.033v0l-1.306 1.992-0.851 0.075c-0.093-0.368-0.224-0.626-0.391-0.772-0.174-0.139-0.394-0.197-0.661-0.173v0c-0.327 0.029-0.666 0.146-1.017 0.352-0.345 0.199-0.73 0.559-1.155 1.081v0l0.591 6.654 3.217 0.683-0.372 0.93-7.344 0.652-0.061-0.691 1.842-1.736-0.561-6.324-2.084-0.985-0.061-0.69 3.655-2.221 0.935 2.691 2.111-2.578c0.303-0.148 0.708-0.244 1.215-0.289v0z" fill="#89939e" data-fill-palette-color="primary"></path><path d="M118.394 145.728l-0.08 0.998-6.31 2.588-0.263-0.641 1.323-2.334-4.707-11.479 0.059 15.925-1.143 0.469-11.148-11.541 4.866 11.869 2.625 0.205-0.079 0.999-4.852 1.989-0.263-0.641 1.323-2.334-4.985-12.157-2.632-0.278 0.066-1.004 4.507-1.848 10.529 10.904-0.175-15.149 4.768-1.955 0.263 0.641-1.338 2.351 5.145 12.547z" fill="#89939e" data-fill-palette-color="primary"></path><path d="M129.954 136.983l0.215 0.973-4.88 3.918-0.434-0.54 0.57-2.467-4.1-5.107-2.425 0.156-0.434-0.54 2.092-3.523 0.658-0.528 6.673 8.311zM115.891 124.97c0.345-0.277 0.735-0.379 1.169-0.308 0.439 0.077 0.812 0.306 1.119 0.687v0c0.218 0.272 0.338 0.592 0.359 0.961 0.031 0.37-0.02 0.724-0.152 1.062-0.132 0.338-0.313 0.599-0.543 0.784v0c-0.35 0.281-0.742 0.386-1.178 0.314-0.434-0.081-0.804-0.312-1.11-0.693v0c-0.218-0.272-0.34-0.59-0.367-0.955-0.031-0.37 0.02-0.724 0.152-1.062 0.132-0.338 0.316-0.601 0.551-0.79z" fill="#89939e" data-fill-palette-color="primary"></path><path d="M143.779 120.45l0.433 0.898-2.619 3.359-5.957-4.646c-0.65-0.507-1.182-0.76-1.597-0.761-0.415-0.001-0.827 0.26-1.234 0.782v0c-0.301 0.386-0.53 0.827-0.688 1.324-0.159 0.487-0.242 1.149-0.249 1.984v0l5.363 4.182 1.859-1.11 0.434 0.898-3.849 4.935-0.546-0.426-0.013-2.532-5.006-3.904-2.142 0.852-0.547-0.426 0.871-4.188 2.748 1.214-0.038-4.068c0.098-0.322 0.304-0.684 0.617-1.086v0c0.626-0.803 1.368-1.248 2.225-1.334 0.858-0.087 1.704 0.195 2.539 0.845v0l5.521 4.306z" fill="#89939e" data-fill-palette-color="primary"></path><path d="M152.329 101.027l0.658 0.755-1.6 3.947-1.499-0.607 0.751 2.559c-0.067 0.486-0.226 1.039-0.477 1.659v0c-0.372 0.919-0.945 1.644-1.717 2.177-0.772 0.532-1.648 0.839-2.627 0.918-0.985 0.077-1.971-0.084-2.959-0.484v0c-1.067-0.433-1.935-1.164-2.601-2.192-0.673-1.032-1.091-2.148-1.255-3.349-0.167-1.21-0.066-2.27 0.305-3.183v0c0.309-0.763 0.804-1.369 1.484-1.815v0l-4.273-1.733-2.042 1.319-0.642-0.261 0.107-4.086 0.321-0.791 16.589 6.725zM148.829 107.575c0.169-0.416 0.272-0.84 0.31-1.272 0.036-0.426-0.019-0.943-0.163-1.551v0l-4.738-1.921c-0.728-0.201-1.423-0.107-2.087 0.281-0.661 0.382-1.188 1.058-1.58 2.026v0c-0.637 1.57 0.159 2.807 2.387 3.71v0c1.303 0.528 2.505 0.701 3.605 0.519 1.1-0.183 1.855-0.78 2.266-1.792z" fill="#89939e" data-fill-palette-color="primary"></path><path d="M0.077 79.691c0-3.724 3.019-6.742 6.742-6.742 3.724 0 6.742 3.019 6.742 6.742 0 3.724-3.019 6.742-6.742 6.742-3.724 0-6.742-3.019-6.742-6.742z" data-fill-palette-color="primary" fill="#89939e"></path><path d="M143.277 79.691c0-3.724 3.019-6.742 6.743-6.742 3.724 0 6.742 3.019 6.742 6.742 0 3.724-3.019 6.742-6.742 6.742-3.724 0-6.742-3.019-6.743-6.742z" data-fill-palette-color="primary" fill="#89939e"></path></g></svg></g></svg></g></svg></g><g></g></svg></g></svg></g><g><path d="M37.772 77.227l1.052 1.211-4.174 10.024-1.029-0.428-1.15-4.113-18.241-7.595 18.041 17.849-0.756 1.818-25.579-0.401 18.872 7.858 3.183-2.733 1.052 1.211-3.216 7.725-1.029-0.429-1.146-4.122-19.335-8.051-3.274 2.663-1.043-1.207 2.981-7.159 24.154 0.373-17.3-16.834 3.162-7.595 1.02 0.425 1.134 4.15 19.966 8.313z" fill="#dedede" data-fill-palette-color="accent"></path><path d="M57.194 53.701l0.608 1.474-4.456 5.124-2.35-2.044-0.247 5.137c-0.166 0.486-0.483 1-0.954 1.54v0c-1.345 1.546-2.705 2.329-4.08 2.349-1.375 0.02-2.603-0.441-3.685-1.381v0c-0.647-0.563-1.079-1.351-1.297-2.366-0.227-1.014-0.243-2.195-0.047-3.543v0l5.3-6.094-1.728-1.503c-1.167-1.015-2.261-1.426-3.282-1.231-1.026 0.2-2.009 0.84-2.95 1.921v0c-0.967 1.112-1.482 3.06-1.544 5.847v0l-1.728-0.079 0.306-6.551c0.478-0.845 1.156-1.773 2.034-2.783v0c1.42-1.632 2.922-2.548 4.508-2.749 1.581-0.205 3.134 0.356 4.66 1.683v0l7.875 6.85zM48.25 62.07c0.954-1.096 1.475-2.711 1.564-4.843v0l-2.721-2.367-4.147 4.767c0.081 0.488 0.222 0.903 0.422 1.245 0.2 0.352 0.472 0.677 0.815 0.976v0c0.667 0.58 1.387 0.905 2.161 0.975 0.769 0.075 1.405-0.176 1.906-0.753z" fill="#dedede" data-fill-palette-color="accent"></path><path d="M73.75 38.092c-0.388-0.546-1.043-0.832-1.965-0.858-0.926-0.032-2.239 0.075-3.938 0.321v0c-1.386 0.188-2.528 0.31-3.425 0.365-0.898 0.055-1.747-0.019-2.549-0.222-0.801-0.203-1.417-0.607-1.848-1.213v0c-0.497-0.699-0.736-1.654-0.719-2.866 0.018-1.212 0.26-2.391 0.728-3.537 0.469-1.155 1.072-1.994 1.809-2.518v0c0.895-0.636 2.009-1.26 3.342-1.87 1.333-0.61 2.358-0.965 3.076-1.065v0l3.189 4.487-1.106 0.786c-1.48-0.764-2.865-1.193-4.155-1.286-1.292-0.084-2.364 0.177-3.215 0.782v0c-0.606 0.431-0.979 0.934-1.12 1.511-0.142 0.586-0.041 1.122 0.304 1.607v0c0.427 0.6 1.127 0.916 2.102 0.946 0.965 0.029 2.316-0.093 4.053-0.366v0c1.354-0.198 2.462-0.328 3.322-0.39 0.864-0.056 1.683 0.016 2.457 0.214 0.764 0.196 1.361 0.598 1.792 1.203v0c0.508 0.715 0.736 1.683 0.683 2.904-0.053 1.221-0.327 2.418-0.823 3.592-0.496 1.174-1.113 2.023-1.85 2.547v0c-0.95 0.675-2.159 1.366-3.629 2.074-1.469 0.707-2.585 1.126-3.346 1.257v0l-3.189-4.487 1.114-0.791c1.534 0.725 3.005 1.089 4.411 1.091 1.411 0.008 2.591-0.326 3.541-1v0c0.639-0.454 1.041-0.986 1.206-1.597 0.162-0.616 0.078-1.156-0.252-1.621z" fill="#dedede" data-fill-palette-color="accent"></path><path d="M102.112 25.868l-2.296 3.991c-0.439 0.383-1.026 0.72-1.76 1.012v0c-1.836 0.729-3.372 0.78-4.608 0.153-1.236-0.627-2.253-1.948-3.054-3.965v0l-3.849-9.701-3.585 1.422-0.537-1.354 3.396-9.852 1.261-0.5 2.915 7.348 5.985-2.375 0.537 1.354-5.985 2.375 4.009 10.103c0.711 1.793 1.932 2.346 3.662 1.659v0c0.461-0.183 0.869-0.46 1.226-0.832 0.35-0.37 0.745-0.937 1.184-1.702v0z" fill="#dedede" data-fill-palette-color="accent"></path><path d="M130.494 18.138l-5.446 5.95c-0.908 0.344-2.023 0.623-3.345 0.837v0c-1.547 0.251-3.004 0.07-4.372-0.543-1.368-0.613-2.511-1.557-3.431-2.833-0.919-1.276-1.514-2.747-1.783-4.413v0c-0.293-1.811-0.017-3.6 0.83-5.365 0.846-1.772 2.021-3.268 3.526-4.489 1.505-1.221 3.034-1.957 4.588-2.209v0c2.234-0.362 4.113 0.239 5.635 1.804 1.522 1.565 2.518 3.795 2.987 6.691v0l-13.06 2.116c0.462 1.974 1.276 3.518 2.44 4.631 1.158 1.115 2.559 1.539 4.206 1.273v0c1.527-0.247 3.51-1.786 5.948-4.617v0zM119.499 8.369c-2.545 0.412-3.592 2.37-3.14 5.872v0l8.25-1.337c-0.417-1.235-0.793-2.171-1.127-2.809-0.333-0.631-0.809-1.121-1.428-1.468-0.626-0.346-1.478-0.432-2.555-0.258z" fill="#dedede" data-fill-palette-color="accent"></path><path d="M158.092 5.222c0.78 0.074 1.447 0.352 1.999 0.835 0.553 0.483 0.96 1.12 1.222 1.911v0l-2.628 2.728-1.35-0.127c-0.037-0.602-0.168-1.038-0.391-1.308-0.229-0.277-0.557-0.436-0.985-0.477v0c-0.52-0.049-1.083 0.036-1.689 0.254-0.606 0.219-1.315 0.673-2.126 1.364v0l-1.001 10.6 4.836 2.001-0.846 1.363-11.7-1.105 0.104-1.11 3.396-2.192 0.951-10.071-2.986-2.148 0.104-1.1 6.363-2.416 0.687 4.484 4.056-3.421c0.518-0.146 1.181-0.181 1.988-0.105v0z" fill="#dedede" data-fill-palette-color="accent"></path><path d="M201.419 39.201l-1.21 1.053-10.028-4.168 0.428-1.03 4.113-1.152 7.584-18.246-17.839 18.052-1.818-0.755 0.385-25.579-7.846 18.876 2.735 3.182-1.21 1.053-7.727-3.212 0.428-1.029 4.121-1.148 8.039-19.34-2.664-3.273 1.206-1.043 7.161 2.976-0.358 24.154 16.822-17.31 7.597 3.158-0.424 1.02-4.149 1.136-8.301 19.971z" fill="#dedede" data-fill-palette-color="accent"></path><path d="M218.908 52.784l-1.452 0.658-7.738-6.279 0.697-0.858 4.04 0.058 6.578-8.104-1.066-3.724 0.696-0.858 6.186 2.07 1.053 0.855-10.698 13.181zM232.885 26.842c0.551 0.447 0.844 1.022 0.879 1.723 0.03 0.697-0.205 1.352-0.702 1.966v0c-0.346 0.426-0.803 0.724-1.371 0.892-0.568 0.169-1.133 0.206-1.695 0.112-0.571-0.093-1.042-0.289-1.411-0.589v0c-0.556-0.452-0.849-1.026-0.879-1.722-0.031-0.706 0.201-1.363 0.694-1.972v0c0.346-0.426 0.803-0.724 1.371-0.893 0.568-0.169 1.136-0.204 1.703-0.105 0.566 0.089 1.037 0.285 1.411 0.588z" fill="#dedede" data-fill-palette-color="accent"></path><path d="M240.553 79.252l-1.575 0.303-4.115-5.401 9.58-7.3c1.044-0.796 1.65-1.514 1.818-2.155 0.177-0.64-0.053-1.379-0.69-2.215v0c-0.475-0.623-1.062-1.157-1.762-1.6-0.696-0.438-1.685-0.83-2.966-1.175v0l-8.614 6.563 0.958 3.312-1.575 0.303-6.04-7.926 0.887-0.676 3.914 1.009 8.046-6.131-0.446-3.651 0.879-0.67 6.091 3.038-2.987 3.754 6.292 1.595c0.455 0.276 0.928 0.737 1.419 1.382v0c0.982 1.289 1.369 2.615 1.161 3.977-0.212 1.357-0.989 2.547-2.331 3.57v0l-8.869 6.758z" fill="#dedede" data-fill-palette-color="accent"></path><path d="M253.427 109.608l-1.588-0.145-2.472-6.325 2.395-0.936-3.671-2.135c-0.459-0.64-0.883-1.46-1.273-2.458v0c-0.573-1.466-0.703-2.932-0.392-4.398 0.311-1.466 0.994-2.783 2.048-3.949 1.054-1.167 2.367-2.057 3.939-2.672v0c1.709-0.668 3.517-0.77 5.423-0.307 1.91 0.454 3.62 1.289 5.131 2.503 1.51 1.215 2.55 2.552 3.12 4.012v0c0.478 1.223 0.565 2.468 0.263 3.736v0l6.859-2.68 0.912-3.764 1.029-0.402 4.356 4.855 0.494 1.263-26.563 10.379zM250.315 98.195c0.261 0.667 0.604 1.27 1.03 1.808 0.426 0.538 1.055 1.08 1.886 1.625v0l7.588-2.965c1.057-0.571 1.759-1.442 2.107-2.613 0.348-1.171 0.218-2.533-0.389-4.087v0c-0.98-2.507-3.257-3.063-6.831-1.666v0c-2.083 0.814-3.66 1.93-4.732 3.348-1.071 1.418-1.291 2.935-0.659 4.55z" fill="#dedede" data-fill-palette-color="accent"></path><path d="M24.135 214.675l-1.772-0.096-4.796-11.048 1.124-0.488 4.175 2.25 20.114-8.733-28.146 0.678-0.868-2 20.003-20.14-20.806 9.034-0.269 4.651-1.772-0.096-3.693-8.505 1.124-0.488 4.175 2.25 21.313-9.253 0.392-4.671 1.772 0.096 3.428 7.896-18.888 18.999 26.766-0.856 3.632 8.367-1.124 0.488-4.191-2.287-22.004 9.553z" fill="#dedede" data-fill-palette-color="accent"></path><path d="M47.062 241.829l-1.71 0.475-5.047-5.594 2.558-2.308-5.62-0.964c-0.509-0.254-1.028-0.674-1.557-1.26v0c-1.521-1.685-2.202-3.285-2.044-4.799 0.163-1.518 0.834-2.809 2.012-3.873v0c0.706-0.637 1.631-1.012 2.775-1.124 1.148-0.107 2.45 0.036 3.904 0.428v0l6.003 6.652 1.887-1.703c1.278-1.153 1.875-2.305 1.792-3.457-0.078-1.156-0.649-2.323-1.712-3.502v0c-1.095-1.213-3.177-2.041-6.246-2.482v0l0.325-1.89 7.178 1.208c0.863 0.646 1.79 1.519 2.782 2.618v0c1.611 1.785 2.425 3.562 2.444 5.331 0.009 1.769-0.822 3.407-2.493 4.915v0l-8.591 7.753zM39.033 230.863c1.081 1.198 2.79 1.988 5.127 2.368v0l2.976-2.685-4.698-5.206c-0.547 0.034-1.026 0.137-1.438 0.311-0.412 0.173-0.804 0.428-1.177 0.764v0c-0.726 0.655-1.179 1.402-1.36 2.242-0.186 0.844 0.004 1.579 0.57 2.206z" fill="#dedede" data-fill-palette-color="accent"></path><path d="M68.812 254.582c0.423-0.611 0.474-1.403 0.154-2.374-0.323-0.981-0.93-2.31-1.822-3.986v0c-0.726-1.375-1.286-2.519-1.678-3.435-0.393-0.915-0.636-1.829-0.729-2.741-0.09-0.917 0.098-1.712 0.563-2.383v0c0.541-0.782 1.448-1.392 2.721-1.83 1.267-0.442 2.592-0.637 3.973-0.585 1.372 0.054 2.471 0.367 3.296 0.939v0c1.002 0.694 2.075 1.62 3.22 2.779 1.135 1.161 1.892 2.096 2.272 2.807v0l-3.477 5.021-1.239-0.858c0.24-1.829 0.163-3.435-0.233-4.816-0.395-1.382-1.072-2.404-2.03-3.068v0c-0.672-0.465-1.338-0.662-1.999-0.589-0.661 0.072-1.18 0.38-1.557 0.925v0c-0.465 0.672-0.53 1.519-0.195 2.541 0.344 1.02 0.982 2.387 1.914 4.099v0c0.718 1.328 1.272 2.433 1.664 3.315 0.386 0.878 0.62 1.757 0.703 2.637 0.087 0.875-0.104 1.651-0.574 2.328v0c-0.557 0.804-1.481 1.41-2.774 1.818-1.294 0.399-2.646 0.563-4.054 0.491-1.41-0.081-2.529-0.407-3.355-0.979v0c-1.063-0.736-2.243-1.737-3.541-3.002-1.293-1.262-2.149-2.266-2.569-3.013v0l3.471-5.013 1.239 0.858c-0.165 1.873 0.012 3.547 0.53 5.022 0.522 1.469 1.317 2.574 2.385 3.313v0c0.716 0.496 1.424 0.713 2.126 0.654 0.705-0.066 1.237-0.357 1.595-0.875z" fill="#dedede" data-fill-palette-color="accent"></path><path d="M98.579 269.586l-4.877 1.509c-0.643-0.028-1.37-0.199-2.182-0.515v0c-2.047-0.797-3.337-1.913-3.871-3.35-0.531-1.443-0.36-3.284 0.512-5.524v0l4.196-10.785-3.988-1.552 0.59-1.516 10.198-5.431 1.404 0.546-3.176 8.163 6.646 2.587-0.59 1.516-6.647-2.586-4.367 11.224c-0.777 1.997-0.205 3.37 1.717 4.118v0c0.518 0.202 1.061 0.284 1.629 0.246 0.566-0.031 1.315-0.193 2.247-0.484v0z" fill="#dedede" data-fill-palette-color="accent"></path><path d="M129.985 273.238l-7.817 4.35c-1.078 0.034-2.347-0.069-3.807-0.308v0c-1.718-0.281-3.191-0.984-4.419-2.108-1.221-1.123-2.089-2.517-2.603-4.182-0.521-1.666-0.63-3.425-0.327-5.276v0c0.329-2.009 1.252-3.792 2.769-5.348 1.51-1.558 3.271-2.715 5.281-3.472 2.017-0.756 3.885-0.993 5.603-0.711v0c2.478 0.406 4.241 1.699 5.289 3.878 1.054 2.181 1.319 4.875 0.795 8.08v0l-14.484-2.371c-0.205 2.247 0.106 4.16 0.933 5.741 0.827 1.581 2.152 2.521 3.977 2.819v0c1.692 0.277 4.32-0.647 7.884-2.77v0zM121.858 259.092c-2.815-0.461-4.605 1.228-5.37 5.066v0l9.16 1.499c-0.007-1.447-0.073-2.56-0.196-3.34-0.129-0.788-0.458-1.473-0.987-2.055-0.536-0.583-1.405-0.973-2.607-1.17z" fill="#dedede" data-fill-palette-color="accent"></path><path d="M156.23 255.93c0.867-0.077 1.652 0.092 2.354 0.507 0.696 0.416 1.268 1.027 1.716 1.834v0l-2.32 3.514-1.501 0.133c-0.165-0.651-0.397-1.101-0.695-1.35-0.298-0.256-0.688-0.362-1.168-0.32v0c-0.574 0.051-1.17 0.259-1.79 0.623-0.62 0.358-1.3 0.993-2.039 1.905v0l1.044 11.767 5.675 1.211-0.64 1.65-12.998 1.154-0.109-1.22 3.266-3.084-0.992-11.177-3.694-1.739-0.108-1.221 6.459-3.921 1.652 4.754 3.74-4.557c0.535-0.256 1.25-0.424 2.144-0.503v0z" fill="#dedede" data-fill-palette-color="accent"></path><path d="M209.279 257.611l-0.132 1.769-11.144 4.57-0.465-1.134 2.336-4.128-8.32-20.29 0.101 28.154-2.017 0.827-19.725-20.411 8.605 20.987 4.644 0.364-0.132 1.77-8.579 3.517-0.465-1.133 2.336-4.128-8.815-21.498-4.662-0.488 0.132-1.769 7.965-3.266 18.608 19.273-0.307-26.777 8.439-3.46 0.465 1.134-2.373 4.143 9.101 22.195z" fill="#dedede" data-fill-palette-color="accent"></path><path d="M229.725 242.141l0.374 1.734-8.624 6.925-0.767-0.956 1.007-4.377-7.245-9.024-4.29 0.289-0.767-0.956 3.696-6.227 1.175-0.943 11.792 14.686zM204.856 220.923c0.621-0.499 1.316-0.683 2.082-0.551 0.767 0.131 1.423 0.537 1.968 1.215v0c0.382 0.475 0.596 1.042 0.643 1.7 0.052 0.654-0.04 1.277-0.276 1.87-0.232 0.599-0.555 1.064-0.967 1.395v0c-0.616 0.495-1.308 0.676-2.075 0.545-0.767-0.131-1.423-0.537-1.967-1.216v0c-0.382-0.475-0.599-1.04-0.651-1.693-0.047-0.658 0.047-1.283 0.283-1.877 0.227-0.594 0.547-1.057 0.96-1.388z" fill="#dedede" data-fill-palette-color="accent"></path><path d="M254.167 212.915l0.764 1.602-4.633 5.941-10.536-8.215c-1.146-0.894-2.087-1.343-2.822-1.347-0.735-0.004-1.461 0.453-2.178 1.371v0c-0.535 0.687-0.94 1.467-1.213 2.341-0.279 0.87-0.423 2.04-0.432 3.51v0l9.475 7.388 3.286-1.96 0.763 1.602-6.801 8.722-0.966-0.754-0.026-4.492-8.849-6.899-3.792 1.514-0.966-0.754 1.539-7.398 4.867 2.139-0.068-7.199c0.174-0.561 0.539-1.198 1.095-1.91v0c1.104-1.415 2.414-2.203 3.931-2.362 1.511-0.163 3.009 0.334 4.493 1.491v0l9.751 7.604z" fill="#dedede" data-fill-palette-color="accent"></path><path d="M269.273 178.585l1.173 1.332-2.831 6.982-2.644-1.072 1.333 4.519c-0.125 0.86-0.411 1.842-0.859 2.947v0c-0.654 1.614-1.665 2.895-3.032 3.843-1.365 0.942-2.916 1.481-4.654 1.614-1.74 0.14-3.48-0.142-5.217-0.847v0c-1.887-0.765-3.421-2.059-4.605-3.882-1.185-1.817-1.924-3.793-2.214-5.928-0.293-2.128-0.113-3.999 0.541-5.612v0c0.546-1.347 1.422-2.419 2.626-3.217v0l-7.568-3.068-3.596 2.346-1.145-0.464 0.201-7.235 0.566-1.396 29.315 11.885zM263.085 190.157c0.299-0.739 0.479-1.486 0.541-2.241 0.069-0.76-0.022-1.675-0.275-2.746v0l-8.378-3.396c-1.283-0.347-2.511-0.18-3.683 0.501-1.176 0.672-2.112 1.868-2.809 3.587v0c-1.122 2.768 0.29 4.952 4.237 6.552v0c2.303 0.933 4.423 1.237 6.363 0.91 1.945-0.324 3.28-1.38 4.004-3.167z" fill="#dedede" data-fill-palette-color="accent"></path><path d="M0.132 140.87c0-6.582 5.336-11.919 11.918-11.918 6.582 0 11.919 5.336 11.919 11.918 0 6.582-5.336 11.919-11.919 11.919-6.582 0-11.919-5.336-11.918-11.919z" fill="#dedede" data-fill-palette-color="accent"></path><path d="M253.278 140.87c0-6.582 5.336-11.919 11.919-11.918 6.582 0 11.919 5.336 11.919 11.918 0 6.582-5.336 11.919-11.919 11.919-6.582 0-11.919-5.336-11.919-11.919z" fill="#dedede" data-fill-palette-color="accent"></path></g></svg></g><defs></defs></svg><rect width="280" height="280" fill="none" stroke="none" visibility="hidden"></rect></g></svg></g></svg>